<?xml version="1.0" encoding="UTF-8" standalone="no"?>
<svg
   xmlns:dc="http://purl.org/dc/elements/1.1/"
   xmlns:cc="http://creativecommons.org/ns#"
   xmlns:rdf="http://www.w3.org/1999/02/22-rdf-syntax-ns#"
   xmlns:svg="http://www.w3.org/2000/svg"
   xmlns="http://www.w3.org/2000/svg"
   width="100"
   height="100"
   viewBox="0 0 100 100"
   id="svg2"
   version="1.1">
  <defs
     id="defs4" />
  <metadata
     id="metadata7">
    <rdf:RDF>
      <cc:Work
         rdf:about="">
        <dc:format>image/svg+xml</dc:format>
        <dc:type
           rdf:resource="http://purl.org/dc/dcmitype/StillImage" />
        <dc:title></dc:title>
      </cc:Work>
    </rdf:RDF>
  </metadata>
  <g
     id="layer1"
     transform="translate(0,-952.36216)">
    <g
       style="font-style:normal;font-weight:normal;font-size:40px;line-height:125%;font-family:sans-serif;letter-spacing:0px;word-spacing:0px;fill:#000000;fill-opacity:1;stroke:none;stroke-width:1px;stroke-linecap:butt;stroke-linejoin:miter;stroke-opacity:1"
       id="text4203"
       transform="matrix(3.3679366,0,0,3.3679366,238.09572,-2199.7502)">
      <path
         d="m -47.382156,935.93964 q 0.195312,0 0.507812,0.3125 0.332031,0.3125 0.683594,0.82031 0.566406,-0.9961 0.898437,-0.9961 0.292969,0 0.800782,0.52735 0.3125,0.33203 0.3125,0.74219 0,0.52734 -0.429688,0.97656 -4.0625,4.41406 -7.890625,9.70703 1.582031,3.86719 4.375,8.53516 0.234375,0.39062 0.234375,0.625 0,0.44921 -0.585937,0.9375 l -0.625,0.42968 q 0.07813,0.23438 0.07813,0.625 0,0.58594 -0.429688,0.89844 -0.507812,0.35156 -0.742187,0.35156 -0.507813,0 -0.898438,-0.50781 -2.34375,-3.00781 -4.84375,-7.07031 -3.359375,4.375 -7.695312,11.67969 -0.625,1.05468 -2.109375,1.05468 -0.703125,0 -0.78125,-0.82031 -0.996094,-0.54687 -0.996094,-1.73828 0,-1.5625 0.214844,-2.16797 0.09766,-0.27344 0.625,-1.09375 3.984375,-6.21094 8.4375,-11.40625 -2.382813,-5.66406 -3.164063,-8.73047 -0.175781,-0.68359 -0.175781,-0.8789 0,-0.27344 0.351562,-0.78125 0.371094,-0.50782 0.683594,-0.50782 0.292969,0 0.742188,0.56641 0.175781,-0.33203 0.429687,-0.56641 0.351563,-0.3125 0.898438,-0.3125 0.625,0 0.820312,0.58594 1.054688,3.28125 2.773438,6.25 2.773437,-3.59375 6.757812,-7.57812 0.46875,-0.46875 0.742188,-0.46875 z"
         id="path4208" />
    </g>
  </g>
</svg>
