<?xml version="1.0" encoding="UTF-8" standalone="no"?>
<svg
   xmlns:dc="http://purl.org/dc/elements/1.1/"
   xmlns:cc="http://creativecommons.org/ns#"
   xmlns:rdf="http://www.w3.org/1999/02/22-rdf-syntax-ns#"
   xmlns:svg="http://www.w3.org/2000/svg"
   xmlns="http://www.w3.org/2000/svg"
   xmlns:sodipodi="http://sodipodi.sourceforge.net/DTD/sodipodi-0.dtd"
   xmlns:inkscape="http://www.inkscape.org/namespaces/inkscape"
   width="100"
   height="100"
   viewBox="0 0 100 100"
   id="svg2"
   version="1.1"
   inkscape:version="0.91 r13725"
   sodipodi:docname="webcircle.svg">
  <sodipodi:namedview
     pagecolor="#ffffff"
     bordercolor="#666666"
     borderopacity="1"
     objecttolerance="10"
     gridtolerance="10"
     guidetolerance="10"
     inkscape:pageopacity="0"
     inkscape:pageshadow="2"
     inkscape:window-width="1920"
     inkscape:window-height="1056"
     id="namedview4766"
     showgrid="false"
     inkscape:zoom="4.585"
     inkscape:cx="22.37701"
     inkscape:cy="50.811826"
     inkscape:window-x="0"
     inkscape:window-y="24"
     inkscape:window-maximized="1"
     inkscape:current-layer="svg2" />
  <defs
     id="defs4" />
  <metadata
     id="metadata7">
    <rdf:RDF>
      <cc:Work
         rdf:about="">
        <dc:format>image/svg+xml</dc:format>
        <dc:type
           rdf:resource="http://purl.org/dc/dcmitype/StillImage" />
        <dc:title />
      </cc:Work>
    </rdf:RDF>
  </metadata>
  <g
     style="fill:#000000;stroke:#ffffff;stroke-width:2.27523994;stroke-linejoin:round;stroke-miterlimit:4;stroke-dasharray:none"
     id="g6022"
     transform="matrix(0.76756412,0,0,0.76756412,0.87973413,0.87589632)">
    <path
       id="path6024"
       d="M 64,0.29 C 28.87,0.29 0.29,28.87 0.28,64 l 0,0 c 0.01,35.13 28.59,63.71 63.72,63.71 35.13,0 63.71,-28.59 63.71,-63.71 l 0,0 C 127.71,28.87 99.13,0.29 64,0.29 Z M 89.2,85.25 C 82.96,83.4 75.8,82.16 67.61,81.87 l 0,-14.26 24.18,0 C 91.53,74.23 90.58,80.06 89.2,85.25 Z M 38.75,42.74 c 6.26,1.86 13.43,3.11 21.64,3.4 l 0,14.25 -24.23,0 c 0.25,-6.63 1.2,-12.46 2.59,-17.65 z m -2.53,24.87 24.17,0 0,14.25 c -8.17,0.29 -15.31,1.52 -21.55,3.37 -1.4,-5.19 -2.36,-11.01 -2.62,-17.62 z m 55.57,-7.22 -24.18,0 0,-14.26 c 8.17,-0.29 15.31,-1.52 21.55,-3.37 1.4,5.2 2.37,11.02 2.63,17.63 z m 28.58,0 -21.3,0 c -0.26,-7.53 -1.35,-14.17 -2.96,-20.05 5.73,-2.35 10.52,-5.19 14.49,-8.17 5.58,8.14 9.1,17.79 9.77,28.22 z M 106.14,26.48 C 102.75,28.99 98.7,31.41 93.86,33.44 89.56,22.2 83.32,14.38 77.76,9.21 c 11.15,2.8 20.95,8.95 28.38,17.27 z m -19.22,9.4 c -5.58,1.64 -11.97,2.75 -19.31,3.03 l 0,-28.61 c 5.43,3.88 13.95,11.8 19.31,25.58 z m -26.53,-25.66 0,28.69 C 53.01,38.63 46.57,37.5 40.96,35.84 46.33,21.94 54.92,14.06 60.39,10.22 Z M 50.24,9.21 C 44.69,14.38 38.45,22.2 34.15,33.44 29.31,31.41 25.26,28.99 21.87,26.48 29.29,18.16 39.1,12.01 50.24,9.21 Z M 17.41,32.17 c 3.97,2.97 8.77,5.82 14.49,8.16 -1.61,5.88 -2.7,12.52 -2.96,20.05 l -21.3,0 C 8.3,49.96 11.83,40.31 17.41,32.17 Z M 28.94,67.61 C 29.2,75.14 30.3,81.78 31.9,87.67 26.17,90.01 21.38,92.86 17.41,95.83 11.83,87.69 8.3,78.04 7.63,67.61 l 21.31,0 z m -7.06,33.91 c 3.38,-2.51 7.43,-4.92 12.28,-6.96 4.3,11.23 10.53,19.06 16.09,24.23 -11.15,-2.8 -20.96,-8.95 -28.37,-17.27 z m 19.2,-9.4 c 5.58,-1.64 11.97,-2.75 19.3,-3.03 l 0,28.62 C 54.97,113.83 46.45,105.9 41.08,92.12 Z m 26.53,25.65 0,-28.68 c 7.37,0.28 13.79,1.4 19.38,3.05 -5.36,13.9 -13.91,21.79 -19.38,25.63 z m 10.16,1.02 c 5.55,-5.17 11.79,-12.99 16.09,-24.23 4.84,2.03 8.89,4.45 12.27,6.96 -7.42,8.32 -17.22,14.47 -28.36,17.27 z M 110.6,95.83 c -3.97,-2.97 -8.77,-5.82 -14.49,-8.16 1.61,-5.89 2.7,-12.52 2.96,-20.06 l 21.3,0 c -0.66,10.43 -4.19,20.08 -9.77,28.22 z"
       style="fill:#000000;stroke:#ffffff;stroke-width:2.27523994;stroke-linejoin:round;stroke-miterlimit:4;stroke-dasharray:none"
       inkscape:connector-curvature="0" />
  </g>
</svg>
